<mxfile host="app.diagrams.net" modified="2024-06-12T09:17:11.563Z" agent="Mozilla/5.0 (Windows NT 10.0; Win64; x64) AppleWebKit/537.36 (KHTML, like Gecko) Chrome/125.0.0.0 Safari/537.36" version="24.4.13" etag="DQ__ChsY00W-KLqC0qT5" type="github">
  <diagram name="Page-1" id="QRg0X4x7vl3BOtCyb_9D">
    <mxGraphModel>
      <root>
        <mxCell id="0" />
        <mxCell id="1" parent="0" />
      </root>
    </mxGraphModel>
  </diagram>
</mxfile>
